<svg xmlns="http://www.w3.org/2000/svg" version="1.1" xmlns:xlink="http://www.w3.org/1999/xlink" xmlns:svgjs="http://svgjs.com/svgjs" width="1440" height="560" preserveAspectRatio="none" viewBox="0 0 1440 560"><g mask="url(&quot;#SvgjsMask1004&quot;)" fill="none"><rect width="1440" height="560" x="0" y="0" fill="#0e2a47"></rect><path d="M593.33 355.1L641.9 355.1L641.9 373.91L593.33 373.91z" stroke="#e73635"></path><path d="M1204.49 298.01L1241.48 298.01L1241.48 347.71L1204.49 347.71z" stroke="#d3b714"></path><path d="M786.52 53.51 a43.33 43.33 0 1 0 86.66 0 a43.33 43.33 0 1 0 -86.66 0z" stroke="#d3b714"></path><path d="M174.56 87.91L220.17 87.91L220.17 110.01L174.56 110.01z" fill="#e73635"></path><path d="M908.86 530.54L945.65 530.54L945.65 568.94L908.86 568.94z" fill="#d3b714"></path><path d="M1137.08 205.39 a40.09 40.09 0 1 0 80.18 0 a40.09 40.09 0 1 0 -80.18 0z" stroke="#037b0b"></path><path d="M619.67 363.11L651.76 363.11L651.76 395.2L619.67 395.2z" stroke="#e73635"></path><path d="M299.57 355.51 a19.66 19.66 0 1 0 39.32 0 a19.66 19.66 0 1 0 -39.32 0z" fill="#e73635"></path><path d="M790.26 71.2a3.02 3.02 0 1 0-4.86 3.59z" stroke="#e73635"></path><path d="M397.09 317.41L419.47 317.41L419.47 337.82L397.09 337.82z" fill="#037b0b"></path><path d="M363.35 529.94 a14.11 14.11 0 1 0 28.22 0 a14.11 14.11 0 1 0 -28.22 0z" stroke="#037b0b"></path><path d="M371.15 476.86L412.67 476.86L412.67 518.38L371.15 518.38z" fill="#e73635"></path><path d="M464.99 229.73L468.74 229.73L468.74 233.48L464.99 233.48z" fill="#037b0b"></path><path d="M447.32 474.27 a8.46 8.46 0 1 0 16.92 0 a8.46 8.46 0 1 0 -16.92 0z" stroke="#e73635"></path><path d="M708.03 518.03L742.93 518.03L742.93 552.93L708.03 552.93z" stroke="#d3b714"></path><path d="M105.53 278.15L130.98 278.15L130.98 320.82L105.53 320.82z" fill="#037b0b"></path><path d="M865.41 187.75a51.97 51.97 0 1 0-86.09-58.24z" stroke="#e73635"></path><path d="M667.98 230.91 a35.9 35.9 0 1 0 71.8 0 a35.9 35.9 0 1 0 -71.8 0z" fill="#037b0b"></path><path d="M42.74 135.63L97.6 135.63L97.6 141.72L42.74 141.72z" stroke="#e73635"></path><path d="M266.7 229.15a49.4 49.4 0 1 0 87.68-45.54z" fill="#d3b714"></path><path d="M343.97 461.95a52.61 52.61 0 1 0-79.05-69.45z" fill="#037b0b"></path><path d="M1388.04 321.93 a13.18 13.18 0 1 0 26.36 0 a13.18 13.18 0 1 0 -26.36 0z" stroke="#037b0b"></path><path d="M768.43 242.57 a18.5 18.5 0 1 0 37 0 a18.5 18.5 0 1 0 -37 0z" stroke="#037b0b"></path><path d="M1277.58 363.88a49.17 49.17 0 1 0-96.76 17.55z" fill="#037b0b"></path><path d="M1178.71 521.76L1230.82 521.76L1230.82 573.87L1178.71 573.87z" stroke="#d3b714"></path><path d="M47.68 133.97L85.89 133.97L85.89 172.18L47.68 172.18z" fill="#e73635"></path><path d="M271.19 503.96 a25.55 25.55 0 1 0 51.1 0 a25.55 25.55 0 1 0 -51.1 0z" fill="#037b0b"></path><path d="M1133.24 1.12 a10.81 10.81 0 1 0 21.62 0 a10.81 10.81 0 1 0 -21.62 0z" stroke="#037b0b"></path><path d="M567.63 46.79L596.71 46.79L596.71 75.87L567.63 75.87z" fill="#037b0b"></path><path d="M549.17 240.34L573.43 240.34L573.43 252.32L549.17 252.32z" fill="#d3b714"></path><path d="M1435.18 15.61L1470.88 15.61L1470.88 51.31L1435.18 51.31z" fill="#037b0b"></path><path d="M549.36 468.02 a49.38 49.38 0 1 0 98.76 0 a49.38 49.38 0 1 0 -98.76 0z" stroke="#037b0b"></path><path d="M1131.72 401.03L1173.18 401.03L1173.18 442.49L1131.72 442.49z" fill="#d3b714"></path></g><defs><mask id="SvgjsMask1004"><rect width="1440" height="560" fill="#ffffff"></rect></mask></defs></svg>